<?xml version="1.0" encoding="UTF-8"?><svg id="Layer_1" xmlns="http://www.w3.org/2000/svg" viewBox="0 0 814 122"><path d="M534.94,56.68c13.68,1.17,24.3,4.86,24.3,18s-13.95,18.99-26.1,18.99c-8.19,0-20.07-1.17-28.44-11.07l5.76-5.31c5.85,7.74,14.58,9.63,22.86,9.63,10.08,0,18.63-3.42,18.63-11.7s-7.38-10.53-17.01-11.43l-7.74-.72c-8.91-.81-21.24-3.42-21.24-16.65,0-10.98,10.08-18.09,26.01-18.09,13.59,0,21.33,4.5,25.38,8.73l-5.76,5.22c-3.6-3.96-9.09-7.2-19.8-7.2-13.59,0-18.54,5.4-18.54,10.98,0,4.77,3.15,9,14.4,9.99l7.29.63Z"/><path d="M569.68,92.5l29.34-63h10.44l29.52,63h-8.1l-6.84-14.67h-40.05l-6.75,14.67h-7.56ZM587.05,71.26h34.02l-17.1-36.81-16.92,36.81Z"/><path d="M682.54,86.92c7.74,0,14.58-1.89,20.7-6.57v-11.61h-23.85v-6.75h31.05v21.24c-6.39,6.48-17.19,10.44-27.99,10.44-20.88,0-34.74-13.86-34.74-32.76,0-17.64,13.32-32.58,33.57-32.58,16.38,0,24.12,8.1,28.62,15.57l-6.12,3.87c-3.42-5.67-9.63-12.69-22.5-12.69-16.29,0-26.28,12.06-26.28,25.83,0,14.94,9.99,26.01,27.54,26.01Z"/><path d="M781.54,36.07h-42.12v21.15h37.17v6.57h-37.17v22.14h43.38v6.57h-50.67V29.5h49.41v6.57Z"/><path d="M85.47,50.74c-4.32-7.29-10.71-11.25-20.52-11.25-13.05,0-22.23,9-22.23,21.42s8.55,21.6,23.04,21.6c9.09,0,16.2-3.87,20.34-12.51l10.26,5.4c-5.94,11.16-16.02,18.27-30.6,18.27-20.16,0-34.56-13.32-34.56-32.76s14.67-32.58,33.75-32.58c12.6,0,24.75,5.13,30.51,16.65l-9.99,5.76Z"/><path d="M103.47,92.5l28.8-63h15.03l28.71,63h-12.6l-5.85-13.23h-35.91l-5.85,13.23h-12.33ZM126.51,68.38h26.19l-13.14-29.61-13.05,29.61Z"/><path d="M249.81,29.5v63h-9.81l-39.33-50.13v50.13h-11.52V29.5h16.11l33.12,42.3V29.5h11.43Z"/><path d="M303.36,28.33c19.98,0,34.29,13.59,34.29,32.58s-14.85,32.76-34.29,32.76-34.11-13.14-34.11-32.76,15.21-32.58,34.11-32.58ZM303.36,82.51c13.41,0,22.68-8.73,22.68-21.6,0-12.15-8.73-21.42-22.68-21.42s-22.5,9.27-22.5,21.42c0,12.87,9.36,21.6,22.5,21.6Z"/><path d="M390.48,29.5c4.68,0,9.27.63,12.96,2.43,6.66,3.15,11.34,9.36,11.34,18.63,0,10.17-5.49,16.65-13.32,19.35-3.33,1.26-7.02,1.53-10.98,1.53h-21.96v21.06h-11.43V29.5h33.39ZM368.52,60.37h21.33c2.43,0,4.95-.09,7.02-.63,3.87-1.08,6.57-3.78,6.57-9.18,0-4.77-2.34-7.65-6.03-9-2.07-.81-4.86-.99-7.47-.99h-21.42v19.8Z"/><path d="M435.75,29.5l19.17,22.77,19.44-22.77h14.94l-28.8,33.21v29.79h-11.7v-29.79l-28.44-33.21h15.39Z"/></svg>